<?xml version="1.0" encoding="utf-8"?>
<!-- Generator: Adobe Illustrator 27.2.0, SVG Export Plug-In . SVG Version: 6.00 Build 0)  -->
<svg version="1.1" id="Layer_1" xmlns="http://www.w3.org/2000/svg" xmlns:xlink="http://www.w3.org/1999/xlink" x="0px" y="0px"
	 viewBox="0 0 841.9 595.3" style="enable-background:new 0 0 841.9 595.3;" xml:space="preserve">
<style type="text/css">
	.st0{fill:#F0F0F0;}
</style>
<g>
	<path class="st0" d="M229,368.5c-0.9-8.4,3-15.8,9.7-22.4c69.1-68.9,138-138,207.2-206.9c16.4-16.3,35.2-16.3,52.7-0.8
		c16,14.1,24.6,13.8,40-1.1c8.5-8.2,16.1-17.2,25.8-24c16.6-11.7,34.5-10.5,46.3,3.6c10.8,12.9,9.3,32.3-3.8,45.4
		c-40.1,40.2-80.3,80.3-120.4,120.5c-12.6,12.6-15.9,26.3-10,38.8c10.3,21.7,34.6,26.5,52.1,9.8c18.2-17.5,35.8-35.6,53.7-53.4
		c8.7-8.6,18.7-14.6,31.5-13c13.2,1.6,22.6,8.7,27.1,21.6c4.5,12.9,1.3,24.6-7.8,33.8C594,359.7,554.7,399,515.2,438
		c-12.6,12.4-29,13-43.8,3.4c-25.3-16.5-37.3-15.3-58.7,6c-20.3,20.2-40.4,40.5-60.7,60.7c-13.3,13.2-34,14.1-46.4,2.2
		c-13.3-12.8-13.2-32.8,0.8-47.3c17.3-17.8,35.2-35,52.5-52.8c16.3-16.8,15.3-34.9-2.3-50.2c-11.7-10.3-27.2-10.2-38.8,0.6
		c-10.1,9.5-19.6,19.7-29.6,29.3c-10.6,10.1-22.4,16.1-37.7,10.3C236.1,394.7,229,385.1,229,368.5z"/>
	<path class="st0" d="M231.8,213.3c18.7,0.1,31.8,13.3,31.5,31.8c-0.3,17.9-13.7,31.4-31,31.3c-19.5-0.1-33.7-13.6-33.2-31.9
		C199.5,226.8,213.7,213.2,231.8,213.3z"/>
</g>
</svg>
